<?xml version="1.0" encoding="UTF-8"?>
<svg width="48" height="48" viewBox="0 0 256 256" xmlns="http://www.w3.org/2000/svg">
    <rect width="256" height="256" rx="28" fill="#00599C"/>
    <path d="M128 32c-12.7 0-25.1 2.5-36.8 7.3-11.7 4.8-22.3 11.9-31.2 20.8-9 9-16 19.5-20.8 31.2C34.5 102.9 32 115.3 32 128c0 12.7 2.5 25.1 7.3 36.8 4.8 11.7 11.9 22.3 20.8 31.2 9 9 19.5 16 31.2 20.8 11.7 4.8 24.1 7.3 36.8 7.3 12.7 0 25.1-2.5 36.8-7.3 11.7-4.8 22.3-11.9 31.2-20.8 9-9 16-19.5 20.8-31.2 4.8-11.7 7.3-24.1 7.3-36.8 0-12.7-2.5-25.1-7.3-36.8-4.8-11.7-11.9-22.3-20.8-31.2-9-9-19.5-16-31.2-20.8C153.1 34.5 140.7 32 128 32zm0 153.6c-31.8 0-57.6-25.8-57.6-57.6 0-31.8 25.8-57.6 57.6-57.6 19.1 0 36 9.3 46.5 23.6l-23.2 13.4c-5.7-7.7-14.9-12.7-25.2-12.7-17.3 0-31.4 14.1-31.4 31.4 0 17.3 14.1 31.4 31.4 31.4 10.3 0 19.5-5 25.2-12.7l23.2 13.4c-10.5 14.3-27.4 23.6-46.5 23.6z" fill="white"/>
    <path d="M184 120h8v16h16v8h-16v16h-8v-16h-16v-8h16v-16zm32 0h8v16h16v8h-16v16h-8v-16h-16v-8h16v-16z" fill="white"/>
</svg> 