<?xml version="1.0" encoding="UTF-8"?>
<svg xmlns="http://www.w3.org/2000/svg" viewBox="0 0 512 512">
    <path fill="#2396ED" d="M265.12,249.93h47.21v-42.77H265.12Zm-56.67,0h47.21v-42.77H208.45Zm-56.67,0H199v-42.77H151.78Zm-56.67,0h47.21v-42.77H95.11Zm56.67-51.33H199V155.83H151.78Zm56.67,0h47.21V155.83H208.45Zm56.67,0h47.21V155.83H265.12ZM208.45,147.27h47.21V104.5H208.45Zm56.67,0h47.21V104.5H265.12Zm94.83,110.82c-8.85-6.23-29.18-8.53-44.77-5.44-2-.14-10.54-7.72-16.33-14.83-8.35-10.25-15.36-25.38-19.59-42.17l-.66-2.61-.42-1.7c-3.23-13.15-4.26-21.95-3.75-30.3l.16-2.57a48.65,48.65,0,0,0-8.57-30.22c-9.08-12.8-23.81-19.8-40.49-19.8-14.43,0-27.1,5.43-35.76,15.29-12.3,14-15.9,33.82-12.06,52.91-17.45,8.61-30.67,21.38-38.07,40.86-4.85,12.75-6.18,25.1-6.66,32.69-.06.92-.1,1.78-.14,2.59C128,288.32,148.33,312.73,175.13,325c29.32,13.45,77.52,21.47,132.41,21.47,30.72,0,62.11-2.89,93.26-10.93,40.48-10.44,78.38-31.42,98.85-71.18a206.85,206.85,0,0,0,13.85-30.5H359.94Z"/>
</svg> 