<?xml version="1.0" encoding="UTF-8"?>
<svg xmlns="http://www.w3.org/2000/svg" viewBox="0 0 512 512">
    <path fill="#F05032" d="M502.5,241.4L270.6,9.5c-13.3-13.3-34.9-13.3-48.2,0L178.1,54l61,61c14.2-4.8,30.4-1.6,41.7,9.7c11.3,11.3,14.5,27.7,9.6,41.9l58.7,58.7c14.2-4.9,30.6-1.7,41.9,9.6c15.8,15.8,15.8,41.4,0,57.2c-15.8,15.8-41.4,15.8-57.2,0c-11.9-11.9-14.8-29.3-8.8-43.9l-54.7-54.7v144c3.8,1.9,7.5,4.4,10.7,7.6c15.8,15.8,15.8,41.4,0,57.2c-15.8,15.8-41.4,15.8-57.2,0c-15.8-15.8-15.8-41.4,0-57.2c3.9-3.9,8.4-6.8,13.2-8.7V183.8c-4.8-1.9-9.3-4.8-13.2-8.7c-11.9-11.9-14.8-29.4-8.7-44l-60.2-60.2L9.5,222.4c-13.3,13.3-13.3,34.9,0,48.2l231.9,231.9c13.3,13.3,34.9,13.3,48.2,0l230.9-230.9C533.8,276.3,533.8,254.7,502.5,241.4z"/>
</svg> 