<?xml version="1.0" encoding="UTF-8"?>
<svg xmlns="http://www.w3.org/2000/svg" viewBox="0 0 512 512">
    <path fill="#5382A1" d="M203.1,368.3c0,0-17.9,10.4,12.7,14c37.1,4.2,56.1,3.6,97-4.1c0,0,10.8,6.7,25.8,12.5C235.4,436.6,126.8,384.1,203.1,368.3"/>
    <path fill="#5382A1" d="M194.9,315.9c0,0-20.1,14.9,10.6,18.1c39.7,4.1,71,4.5,125.3-6.1c0,0,7.5,7.6,19.3,11.7C229.6,370.9,110.1,338.1,194.9,315.9"/>
    <path fill="#E76F00" d="M317.4,228.4c22.6,26-5.9,49.5-5.9,49.5s57.4-29.6,31-66.7c-24.7-34.5-43.6-51.7,58.8-110.8C401.3,100.4,242.1,138.5,317.4,228.4"/>
    <path fill="#5382A1" d="M408.7,397.3c0,0,13.2,10.9-14.6,19.3c-52.8,16.1-219.7,20.8-266,0.6c-16.7-7.2,14.6-17.3,24.4-19.4c10.2-2.2,16.1-1.8,16.1-1.8c-18.5-13-119.5,25.6-51.3,36.6C283.4,462.6,455.7,414.9,408.7,397.3"/>
    <path fill="#5382A1" d="M210.8,261.5c0,0-84.7,20.1-30,27.4c23.1,3.1,69.2,2.4,112.1-1.2c35.1-3,70.3-9.4,70.3-9.4s-12.4,5.3-21.3,11.4c-86,22.6-252.1,12.1-204.3-11C174.7,262.5,210.8,261.5,210.8,261.5"/>
    <path fill="#5382A1" d="M380.3,343.2c87.5-45.5,47.1-89.2,18.8-83.3c-6.9,1.4-10,2.7-10,2.7s2.6-4,7.5-5.7c55.9-19.7,98.9,57.9-18.1,88.6C378.5,345.4,379.8,344.3,380.3,343.2"/>
    <path fill="#E76F00" d="M321.8,7.9c0,0,48.5,48.5-46,123c-75.9,59.7-17.3,93.8,0,132.7c-44.4-40-77-75.1-55.2-107.8C250.4,107.4,343.3,84.4,321.8,7.9"/>
    <path fill="#5382A1" d="M216.5,445.1c84,5.4,213-3,216.2-42.8c0,0-5.9,15.1-69.5,27.1c-71.8,13.6-160.4,12-212.8,3.3C150.4,432.7,159.3,441.3,216.5,445.1"/>
</svg> 