<?xml version="1.0" encoding="UTF-8"?>
<svg xmlns="http://www.w3.org/2000/svg" viewBox="0 0 512 512">
    <rect width="512" height="512" fill="#F7DF1E"/>
    <path d="M324.4,370.8c8.5,13.9,19.6,24.1,39.1,24.1c16.4,0,26.9-8.2,26.9-19.5c0-13.6-10.7-18.4-28.7-26.3l-9.8-4.2c-28.5-12.1-47.3-27.3-47.3-59.4c0-29.5,22.5-52,57.6-52c25,0,43,8.7,55.9,31.5l-30.6,19.6c-6.7-12.1-14-16.9-25.3-16.9c-11.5,0-18.8,7.3-18.8,16.9c0,11.8,7.3,16.6,24.2,24l9.8,4.2c33.5,14.4,52.3,29,52.3,62c0,35.4-27.8,54.8-65.2,54.8c-36.5,0-60.2-17.4-71.7-40.2L324.4,370.8z M179.2,373.7c6.2,11,11.8,20.2,25.3,20.2c12.9,0,21.1-5.1,21.1-24.8V237.7h39.1v131.9c0,40.5-23.7,58.9-58.4,58.9c-31.3,0-49.4-16.2-58.7-35.7L179.2,373.7z"/>
</svg> 