<?xml version="1.0" encoding="UTF-8"?>
<svg xmlns="http://www.w3.org/2000/svg" viewBox="0 0 512 512">
    <path fill="#1AA742" d="M256,0C114.6,0,0,114.6,0,256s114.6,256,256,256s256-114.6,256-256S397.4,0,256,0z M389.3,389.3L256,256l-133.3,133.3c-73.5-73.5-73.5-192.5,0-266.1c73.5-73.5,192.5-73.5,266.1,0C462.9,196.8,462.9,315.8,389.3,389.3z"/>
    <path fill="#1AA742" d="M256,128c-70.7,0-128,57.3-128,128s57.3,128,128,128s128-57.3,128-128S326.7,128,256,128z M256,320c-35.3,0-64-28.7-64-64s28.7-64,64-64s64,28.7,64,64S291.3,320,256,320z"/>
</svg> 