<?xml version="1.0" encoding="UTF-8"?>
<svg xmlns="http://www.w3.org/2000/svg" viewBox="0 0 512 512">
    <path fill="#83CD29" d="M255.9,512c-7,0-14-1.8-20.1-5.3l-63.8-37.7c-9.6-5.4-4.9-7.3-1.7-8.4c12.7-4.4,15.3-5.4,28.9-13.2c1.4-0.8,3.3-0.5,4.7,0.4l49,29.1c1.8,1,4.3,1,5.9,0l191.2-110.3c1.8-1,2.9-3.1,2.9-5.2V152.6c0-2.2-1.2-4.2-3-5.2L258.7,37.1c-1.8-1-4.1-1-5.9,0L61.6,147.4c-1.9,1.1-3.1,3.2-3.1,5.2v220.6c0,2.1,1.2,4.1,3,5.1l52.4,30.3c28.4,14.2,45.9-2.5,45.9-19.3V171.7c0-3.1,2.5-5.5,5.6-5.5h24.3c3,0,5.5,2.4,5.5,5.5v218.4c0,37.8-20.6,59.5-56.5,59.5c-11,0-19.7,0-44-12l-50.1-28.9c-12.4-7.1-20.1-20.5-20.1-34.8V152.6c0-14.3,7.7-27.7,20.1-34.8L235.8,7.4c12.1-6.8,28.2-6.8,40.2,0l191.2,110.3c12.4,7.1,20.1,20.5,20.1,34.8v220.6c0,14.3-7.7,27.7-20.1,34.8L276,518.2C269.9,510.2,262.9,512,255.9,512z M302.7,320.1c-83.9,0-101.5-38.5-101.5-70.9c0-3.1,2.5-5.5,5.6-5.5h24.8c2.8,0,5.1,2,5.5,4.7c3.7,25.1,14.9,37.8,65.7,37.8c40.5,0,57.7-9.1,57.7-30.6c0-12.3-4.9-21.5-67.7-27.7c-52.6-5.2-85.1-16.8-85.1-58.9c0-38.8,32.8-61.9,87.7-61.9c61.7,0,92.2,21.4,96,67.5c0.1,1.6-0.4,3.1-1.5,4.3c-1.1,1.1-2.6,1.8-4.2,1.8h-24.9c-2.6,0-4.9-1.9-5.4-4.4c-6-26.7-20.6-35.2-59.9-35.2c-44.1,0-49.2,15.3-49.2,26.8c0,13.9,6,18,65.6,25.8c58.9,7.7,87.1,18.6,87.1,60.3C397.6,295.8,362.9,320.1,302.7,320.1z"/>
</svg> 