<?xml version="1.0" encoding="UTF-8"?>
<svg xmlns="http://www.w3.org/2000/svg" viewBox="0 0 512 512">
    <path fill="#366994" d="M254.4,0C124.2,0,132,56.2,132,56.2l.2,58.2h124.8v17.7H81.5c0,0-74.5-8.5-74.5,109s65,113,65,113h38.8v-54.5c0,0-2.1-65,64-65h110.2c0,0,62,1,62-60V66.7C347,66.7,358.2,0,254.4,0z M188.7,39.7c12.4,0,22.4,10,22.4,22.4s-10,22.4-22.4,22.4s-22.4-10-22.4-22.4S176.3,39.7,188.7,39.7z"/>
    <path fill="#FFD43B" d="M257.6,512c130.2,0,122.4-56.2,122.4-56.2l-.2-58.2H255v-17.7h175.5c0,0,74.5,8.5,74.5-109s-65-113-65-113h-38.8v54.5c0,0,2.1,65-64,65H227c0,0-62-1-62,60v108.5C165,445.3,153.8,512,257.6,512z M323.3,472.3c-12.4,0-22.4-10-22.4-22.4s10-22.4,22.4-22.4s22.4,10,22.4,22.4S335.7,472.3,323.3,472.3z"/>
</svg> 