<?xml version="1.0" encoding="UTF-8"?>
<svg xmlns="http://www.w3.org/2000/svg" viewBox="0 0 512 512">
    <path fill="#61DAFB" d="M418.2,256c0-32.2-40.3-62.9-102-81.9c14.3-62.5,7.9-112.2-20.1-128.3c-6.4-3.7-13.9-5.4-22.1-5.4v21.4c4.5,0,8.2,0.9,11.2,2.6c13.3,7.7,19.1,37,14.6,74.7c-1.1,9.3-2.9,19.1-5.1,29.1c-19.7-4.8-41.1-8.5-63.7-10.9c-13.5-18.5-27.5-35.3-41.6-50c32.6-30.3,63.2-46.9,84-46.9V40c-27.5,0-63.5,19.6-99.9,53.6C138.7,59.2,102.7,40,75.2,40v21.4c20.7,0,51.4,16.5,84,46.6c-14,14.7-28,31.4-41.3,49.9c-22.6,2.4-44,6.1-63.7,11c-2.3-10-4.1-19.7-5.2-29c-4.5-37.7,1.2-67,14.5-74.8c3-1.7,6.8-2.6,11.3-2.6V40c-8.2,0-15.7,1.8-22.2,5.4c-27.9,16.1-34.3,65.7-19.9,128c-61.5,19.1-101.7,49.9-101.7,82c0,32.2,40.3,62.9,102,81.9c-14.3,62.5-7.9,112.2,20.1,128.3c6.4,3.7,13.9,5.4,22.1,5.4c27.5,0,63.5-19.6,99.9-53.6c36.4,33.8,72.4,53.2,99.9,53.2c8.2,0,15.7-1.8,22.2-5.4c27.9-16.1,34.3-65.7,19.9-128c61.5-19.1,101.7-49.9,101.7-82zm-149.1-65.4c-3.7,12.9-8.3,26.2-13.5,39.5c-4.1-8-8.4-16-13.1-24c-4.6-8-9.5-15.8-14.4-23.4c14.2,2,27.9,4.7,41,7.9zm-45.8,106.5c-7.8,13.5-15.8,26.3-24.1,38.2c-14.9,1.3-30,2-45.2,2c-15.1,0-30.2-.7-45-1.9c-8.3-11.9-16.4-24.6-24.2-38c-7.6-13.1-14.5-26.4-20.8-39.8c6.2-13.4,13.2-26.8,20.7-39.9c7.8-13.5,15.8-26.3,24.1-38.2c14.9-1.3,30-2,45.2-2c15.1,0,30.2,0.7,45,1.9c8.3,11.9,16.4,24.6,24.2,38c7.6,13.1,14.5,26.4,20.8,39.8c-6.3,13.4-13.2,26.8-20.7,39.9zm32.3-13c5.4,13.4,10,26.8,13.8,39.8c-13.1,3.2-26.9,5.9-41.2,8c4.9-7.7,9.8-15.6,14.4-23.7c4.6-8,8.9-16.1,13-24.1zM256.2,347.6c-8.6-9.6-17.3-20.3-26-32c8.6,0.4,17.3,0.6,26,0.6c8.8,0,17.6-0.2,26.3-0.6c-8.6,11.7-17.3,22.4-26.3,32zm-114.3-66.2c-14.2-2.1-27.9-4.7-41-7.9c3.7-12.9,8.3-26.2,13.5-39.5c4.1,8,8.4,16,13.1,24c4.7,8,9.5,15.8,14.4,23.4zM256.2,164.4c8.6,9.6,17.3,20.3,26,32c-8.6-0.4-17.3-0.6-26-0.6c-8.8,0-17.6,0.2-26.3,0.6c8.6-11.7,17.3-22.4,26.3-32zm-114,65.9c-4.9,7.7-9.8,15.6-14.4,23.7c-4.6,8-8.9,16-13,24c-5.4-13.4-10-26.8-13.8-39.8c13.1-3.2,26.9-5.9,41.2-7.9zM97.7,374.4c-33.8-9.5-55.5-21.6-55.5-31.4c0-9.8,21.7-21.9,55.5-31.4c8.2-2.3,17.2-4.4,26.5-6.3c5.4,18.6,12.5,37.9,21.1,57.5c-8.5,19.4-15.5,38.6-20.9,57c-9.4-1.9-18.4-4-26.7-6.3zm53.4,101.9c-13.3-7.7-19.1-37-14.6-74.7c1.1-9.3,2.9-19.1,5.1-29.1c19.7,4.8,41.1,8.5,63.7,10.9c13.5,18.5,27.5,35.3,41.6,50c-32.6,30.3-63.2,46.9-84,46.9c-4.5-0.1-8.3-1-11.3-2.7zm237.7-74.7c4.5,37.7-1.2,67-14.5,74.8c-3,1.7-6.8,2.6-11.3,2.6c-20.7,0-51.4-16.5-84-46.6c14-14.7,28-31.4,41.3-49.9c22.6-2.4,44-6.1,63.7-11c2.3,10.1,4.1,19.8,5.2,29.1zm38.5-66.7c-8.2,2.3-17.2,4.4-26.5,6.3c-5.4-18.6-12.5-37.9-21.1-57.5c8.5-19.4,15.5-38.6,20.9-57c9.4,1.9,18.4,4,26.7,6.3c33.8,9.5,55.5,21.6,55.5,31.4c0,9.8-21.7,21.9-55.5,31.4z"/>
    <circle fill="#61DAFB" cx="256" cy="256" r="45.7"/>
</svg> 