<?xml version="1.0" encoding="UTF-8"?>
<svg xmlns="http://www.w3.org/2000/svg" viewBox="0 0 512 512">
    <path fill="#00B400" d="M107.4,340.4c-6.2-17.1,2.3-36,19.4-42.2l94.9-34.5c17.1-6.2,36,2.3,42.2,19.4l34.5,94.9c6.2,17.1-2.3,36-19.4,42.2l-94.9,34.5c-17.1,6.2-36-2.3-42.2-19.4L107.4,340.4z"/>
    <path fill="#00B400" d="M404.6,171.6c6.2,17.1-2.3,36-19.4,42.2l-94.9,34.5c-17.1,6.2-36-2.3-42.2-19.4l-34.5-94.9c-6.2-17.1,2.3-36,19.4-42.2l94.9-34.5c17.1-6.2,36,2.3,42.2,19.4L404.6,171.6z"/>
    <path fill="#00B400" d="M256,0C114.6,0,0,114.6,0,256s114.6,256,256,256s256-114.6,256-256S397.4,0,256,0z M256,448c-106,0-192-86-192-192S150,64,256,64s192,86,192,192S362,448,256,448z"/>
</svg> 